<svg xmlns="http://www.w3.org/2000/svg" width="30" height="22" viewBox="0 0 30 22">
    <g fill="#B1EFBC">
        <path d="M26.338 0H3.668C1.646 0 0 1.585 0 3.535v14.93C0 20.415 1.645 22 3.669 22H26.33C28.355 22 30 20.415 30 18.465V3.54C30.006 1.591 28.361 0 26.338 0zm1.992 18.465c0 1.059-.894 1.92-1.992 1.92H3.668c-1.098 0-1.992-.861-1.992-1.92V3.54c0-1.059.894-1.92 1.993-1.92H26.33c1.1 0 1.993.861 1.993 1.92v14.924h.006z"/>
        <path d="M18.914 10.626l7.333-6.249c.342-.295.373-.796.062-1.126-.31-.324-.837-.354-1.185-.059l-10.113 8.625-1.973-1.674c-.006-.006-.012-.012-.012-.018-.044-.041-.087-.076-.137-.112L4.861 3.186c-.348-.294-.875-.265-1.186.065-.31.33-.279.831.069 1.126l7.42 6.302-7.39 6.574c-.334.3-.353.802-.037 1.126.168.165.391.253.615.253.204 0 .41-.07.57-.212l7.502-6.668 2.035 1.728c.161.135.36.2.558.2.199 0 .404-.07.559-.206l2.09-1.78 7.458 6.732c.162.147.373.218.577.218.224 0 .44-.082.608-.248.317-.318.304-.825-.03-1.126l-7.365-6.644z"/>
    </g>
</svg>
