<svg width="24" height="28" viewBox="0 0 24 28" fill="none" xmlns="http://www.w3.org/2000/svg">
<path d="M19.6409 0C20.4366 0 21.09 0.614102 21.1602 1.39778L21.1664 1.53775V4.42103H20.0223V1.53775C20.0223 1.35197 19.8915 1.19697 19.7177 1.16112L19.6409 1.15331H1.52551C1.34121 1.15331 1.18744 1.28509 1.15188 1.46027L1.14413 1.53775V25.5651C1.14413 25.7509 1.27486 25.9059 1.44864 25.9417L1.52551 25.9495H4.38583V27.1029H1.52551C0.729798 27.1029 0.0763804 26.4887 0.00623424 25.7051L0 25.5651V1.53775C0 0.735656 0.609212 0.0769935 1.38665 0.00628428L1.52551 0H19.6409Z" fill="#91EAB0"/>
<path d="M9.35651 10.4522H18.3186C18.6294 10.4522 18.8828 10.7166 18.8828 11.0444C18.8828 11.3723 18.6294 11.6366 18.3186 11.6366H9.35651C9.04563 11.6366 8.79224 11.3723 8.79224 11.0444C8.79224 10.7166 9.04563 10.4522 9.35651 10.4522Z" fill="#91EAB0"/>
<path d="M9.35651 15.1276H18.3186C18.6294 15.1276 18.8828 15.3922 18.8828 15.7202C18.8828 16.0482 18.6294 16.3128 18.3186 16.3128H9.35651C9.04563 16.3128 8.79224 16.0482 8.79224 15.7202C8.79224 15.3922 9.04563 15.1276 9.35651 15.1276Z" fill="#91EAB0"/>
<path d="M9.35651 19.8027H18.3186C18.6294 19.8027 18.8828 20.0672 18.8828 20.3952C18.8828 20.7232 18.6294 20.9877 18.3186 20.9877H9.35651C9.04563 20.9877 8.79224 20.7232 8.79224 20.3952C8.79224 20.0672 9.04563 19.8027 9.35651 19.8027Z" fill="#91EAB0"/>
<path fill-rule="evenodd" clip-rule="evenodd" d="M5.46298 3.43945H22.2121L22.3841 3.4481C23.2899 3.5396 24.0001 4.34633 24.0001 5.33033V26.1091L23.9919 26.2914C23.9051 27.2512 23.1404 28 22.2121 28H5.46298L5.29098 27.9914C4.38519 27.8999 3.67505 27.0931 3.67505 26.1091V5.33033L3.68325 5.14804C3.77 4.1883 4.53475 3.43945 5.46298 3.43945ZM22.8786 5.21657C22.8264 4.88157 22.5489 4.6244 22.2122 4.6244H5.46302L5.35321 4.63368C5.03172 4.68861 4.78784 4.98079 4.78784 5.33088V26.1097L4.79665 26.224C4.84879 26.559 5.12634 26.8162 5.46302 26.8162H22.2122L22.322 26.8069C22.6435 26.752 22.8874 26.4598 22.8874 26.1097V5.33088L22.8786 5.21657Z" fill="#91EAB0"/>
</svg>
